<svg height="852pt" fill="#ff874c" viewBox="-27 -26 852 852.49887" width="852pt" xmlns="http://www.w3.org/2000/svg"><path d="m144.945312 75.894531v100.714844c1.5 20.621094 19.316407 36.183594 39.949219 34.910156h426.167969c20.628906 1.273438 38.441406-14.289062 39.949219-34.910156v-100.714844c17.242187-6.074219 28.171875-23.074219 26.527343-41.277343-1.644531-18.210938-15.4375-32.980469-33.488281-35.863282-18.058593-2.878906-35.761719 6.855469-43 23.644532-7.230469 16.789062-2.144531 36.34375 12.351563 47.492187l-96.816406 70.582031c-6.417969 4.230469-14.816407 3.917969-20.894532-.789062l-75.074218-68.410156c14.417968-9.921876 20.703124-28.0625 15.515624-44.769532-5.195312-16.71875-20.652343-28.105468-38.15625-28.105468-17.496093 0-32.964843 11.386718-38.148437 28.105468-5.195313 16.707032 1.089844 34.847656 15.507813 44.769532l-75.070313 68.460937c-6.085937 4.699219-14.476563 5.019531-20.890625.789063l-96.828125-70.585938c14.519531-11.113281 19.636719-30.664062 12.421875-47.46875-7.207031-16.800781-24.902344-26.566406-42.960938-23.707031-18.058593 2.859375-31.875 17.605469-33.542968 35.816406-1.664063 18.203125 9.234375 35.226563 26.480468 41.316406zm492.75-50.820312c7.355469 0 13.316407 5.960937 13.316407 13.316406s-5.960938 13.316406-13.316407 13.316406c-7.355468 0-13.316406-5.960937-13.316406-13.316406s5.960938-13.316406 13.316406-13.316406zm-239.71875 0c7.359376 0 13.320313 5.960937 13.320313 13.316406s-5.960937 13.316406-13.320313 13.316406c-7.351562 0-13.316406-5.960937-13.316406-13.316406s5.964844-13.316406 13.316406-13.316406zm-134.3125 136.976562c16.660157 11.730469 39.171876 10.632813 54.613282-2.667969l79.699218-72.703124 79.757813 72.742187c15.445313 13.296875 37.945313 14.394531 54.605469 2.664063l92.039062-67.226563v81.75c0 3.910156-5.703125 8.273437-13.316406 8.273437h-426.167969c-7.617187 0-13.316406-4.363281-13.316406-8.273437v-81.75zm-105.402343-136.976562c7.355469 0 13.316406 5.960937 13.316406 13.316406s-5.960937 13.316406-13.316406 13.316406-13.316407-5.960937-13.316407-13.316406 5.960938-13.316406 13.316407-13.316406zm0 0"/><path d="m1.109375 378.894531c1.777344 4.910157 4.492187 9.4375 7.996094 13.320313l358.628906 391.960937c6.734375 7.238281 15.867187 11.796875 25.703125 12.816407 1.097656.300781 2.226562.460937 3.371094.476562.15625 0 .300781-.066406.480468-.066406h.835938c11.453125-.035156 22.363281-4.871094 30.097656-13.3125l358.628906-391.886719c7.820313-8.535156 11.605469-20 10.410157-31.515625-1.199219-11.503906-7.265625-21.953125-16.664063-28.695312l-119.527344-86.101563c-6.980468-5.035156-15.371093-7.746094-23.976562-7.738281h-478.234375c-7.886719.023437-15.597656 2.335937-22.203125 6.660156h-.078125c-.5625.378906-1.171875.65625-1.71875 1.050781l-119.523437 86.128907c-9.402344 6.769531-15.46875 17.234374-16.675782 28.753906-.292968 2.972656-.246094 5.980468.121094 8.949218-.148438.535157-.261719 1.085938-.335938 1.636719.070313 2.742188 1 5.386719 2.664063 7.5625zm37.15625 5.753907h229.855469l106.828125 367.996093zm359.125 349.722656-101.535156-349.722656h203.058593zm21.894531 20.160156 107.367188-369.882812h231.03125zm234.042969-481.402344 111.722656 80.476563c1.640625 1.160156 3.003907 2.664062 4 4.410156h-216.042969zm-31.390625-8.335937-104.488281 88.414062-87.511719-88.414062zm-137.167969 93.222656h-174.464843l87.671874-87.660156zm-118.902343-93.222656-88.449219 88.453125-104.589844-88.453125zm-334.960938 88.8125 111.078125-80.023438 99.777344 84.433594h-214.835938c.984375-1.746094 2.34375-3.242187 3.980469-4.410156zm0 0"/></svg>