<?xml version="1.0" encoding="iso-8859-1"?>
<!-- Generator: Adobe Illustrator 19.0.0, SVG Export Plug-In . SVG Version: 6.00 Build 0)  -->
<svg version="1.1" id="Capa_1" xmlns="http://www.w3.org/2000/svg" xmlns:xlink="http://www.w3.org/1999/xlink" x="0px" y="0px"
	 viewBox="0 0 400 400" style="enable-background:new 0 0 400 400;" xml:space="preserve">
<g>
	<g>
		<g>
			<path d="M325.6,96.8c-30.8-30.4-72.4-50-118.4-52V15.2h41.2c4,0,7.6-3.2,7.6-7.6c0-4-3.2-7.6-7.6-7.6h-97.2c-4,0-7.6,3.2-7.6,7.6
				c0,4,3.2,7.6,7.6,7.6h41.2v29.6c-46,2-87.6,21.2-118,52c-32,32-52,76.8-52,125.6c0,49.2,20,93.6,52,125.6s76.8,52,125.6,52
				c49.2,0,93.6-20,125.6-52s52-76.8,52-125.6C377.6,173.2,357.6,128.8,325.6,96.8z M314.8,337.6c-29.6,29.6-70,47.6-115.2,47.6
				c-44.8,0-85.6-18.4-115.2-47.6c-29.6-29.6-47.6-70-47.6-115.2c0-44.8,18.4-85.6,47.6-115.2c29.6-29.6,70-47.6,115.2-47.6
				c44.8,0,85.6,18.4,115.2,47.6c29.6,29.6,47.6,70,47.6,115.2C362.4,267.6,344,308,314.8,337.6z"/>
			<path d="M297.6,124.4c-24.8-25.2-59.6-40.8-98-40.8c-38.4,0-73.2,15.6-98,40.8c-25.2,25.2-40.8,60-40.8,98s15.6,73.2,40.8,98
				c25.2,25.2,60,40.8,98,40.8s73.2-15.6,98-40.8c25.2-25.2,40.8-60,40.8-98S322.8,149.6,297.6,124.4z M287.2,310
				c-22.4,22.4-53.2,36.4-87.6,36.4c-34,0-65.2-14-87.6-36.4c-22.4-22.4-36.4-53.2-36.4-87.6c0-34,14-65.2,36.4-87.6
				c22.4-22.4,53.2-36.4,87.6-36.4c34,0,65.2,14,87.6,36.4c22.4,22.4,36.4,53.2,36.4,87.6C323.2,256.8,309.6,287.6,287.2,310z"/>
			<path d="M215.6,206.4c-2.4-2.4-5.2-4.4-8.8-5.6V144c0-4-3.2-7.6-7.6-7.6c-4,0-7.6,3.2-7.6,7.6v57.2c-3.2,1.2-6.4,2.8-8.8,5.2
				s-4.4,5.2-5.2,8.8h-42.4c-4,0-7.6,3.2-7.6,7.6c0,4,3.2,7.6,7.6,7.6H178c1.2,3.2,2.8,6,5.2,8.4c4,4,10,6.8,16,6.8
				c6.4,0,12-2.4,16-6.8c4-4,6.8-10,6.8-16C222.4,216.4,220,210.4,215.6,206.4z M205.2,228c-1.6,1.6-3.2,2.4-5.6,2.4
				c-2,0-4-0.8-5.6-2.4c-1.2-1.2-2.4-3.2-2.4-5.6c0-2,0.8-4,2.4-5.6c1.6-1.6,3.2-2.4,5.6-2.4c2,0,4,0.8,5.6,2.4
				c1.2,1.2,2.4,3.2,2.4,5.6C207.2,224.8,206.4,226.8,205.2,228z"/>
		</g>
	</g>
</g>
<g>
</g>
<g>
</g>
<g>
</g>
<g>
</g>
<g>
</g>
<g>
</g>
<g>
</g>
<g>
</g>
<g>
</g>
<g>
</g>
<g>
</g>
<g>
</g>
<g>
</g>
<g>
</g>
<g>
</g>
</svg>
